<svg width="1280" height="720" xmlns="http://www.w3.org/2000/svg" xmlns:xlink="http://www.w3.org/1999/xlink" overflow="hidden"><defs><clipPath id="clip0"><rect x="0" y="0" width="1280" height="720"/></clipPath></defs><g clip-path="url(#clip0)"><rect x="0" y="0" width="1280" height="720" fill="#FFFFFF"/><path d="M704.169 293.353C716.752 296.319 714.422 253.619 715.354 236.421 716.286 219.222 712.558 204.989 709.761 190.163 706.965 175.337 704.169 159.324 698.576 147.463 692.983 135.602 680.399 127.299 676.205 118.997 672.01 110.694 675.739 95.8679 673.408 97.6472 671.078 99.4264 667.349 117.218 662.223 129.672 657.096 142.126 645.91 159.324 642.648 172.371 639.385 185.418 642.648 207.954 642.648 207.954 639.385 215.07 630.064 204.396 639.852 218.629 649.639 232.863 691.585 290.388 704.169 293.353Z" stroke="#000000" stroke-width="1.33333" stroke-miterlimit="8" fill="#FFFFFF" fill-rule="evenodd"/><path d="M482.156 325.021C460.234 354.674 449.937 313.802 436.319 308.192 422.701 302.582 410.744 291.362 400.448 291.362 390.151 291.362 384.505 304.184 374.54 308.192 364.576 312.199 357.933 309.394 340.661 315.404 323.39 321.415 298.146 339.046 270.91 344.255 243.674 349.465 199.831 346.259 177.245 346.66 154.659 347.06 145.691 349.465 135.394 346.66 125.098 343.855 120.116 335.039 115.466 329.83 110.816 324.621 113.141 317.808 107.494 315.404 101.848 313 89.8906 317.007 81.587 315.404 73.2833 313.802 66.3081 315.805 57.6723 305.787 49.0365 295.769 37.7434 270.124 29.7718 255.298 21.8002 240.471 14.1611 227.248 9.84324 216.83 5.52534 206.411 5.19289 200 3.8644 192.787 2.53592 185.574-2.77834 180.765 1.87168 173.553 6.5217 166.34 18.8112 159.128 31.7649 149.511 44.7186 139.893 56.3435 131.478 79.5939 115.851 102.844 100.223 147.684 71.7725 171.267 55.7442 194.849 39.7158 200.495 27.6943 221.089 19.6803 241.682 11.6663 271.242 10.0632 294.825 7.65915 318.407 5.25468 338.004 5.65536 362.583 5.25468 387.162 4.854 414.73-6.3658 442.298 5.25468 469.866 16.8752 508.728 56.1448 527.992 74.9783 547.256 93.8118 551.242 109.038 557.885 118.255 564.528 127.471 579.143 96.2159 567.849 130.276 556.556 164.337 504.077 295.369 482.156 325.021Z" stroke="#000000" stroke-width="1.33333" stroke-miterlimit="8" fill="#FFFFFF" fill-rule="evenodd" transform="matrix(-1 0 0 1 926.5 214.5)"/><path d="M0 54.0234 2.36458 64.5381 5.74268 67.4386 12.8366 73.9649 19.5926 79.7661 27.0244 85.5672 33.7805 90.2807 40.8744 94.6316 46.6171 100.433 49.3195 105.871 59.4536 122.187 82.4243 154.819 88.167 163.158 95.5988 167.871 102.017 170.047 106.746 170.772 108.435 168.959 111.813 172.222 113.84 174.76 116.543 176.573 121.61 179.836 131.406 182.737 144.243 183.462 154.039 183.099 163.498 177.298 171.267 165.696 172.618 160.62 179.712 160.62 192.887 157.357 200.656 153.731 204.034 148.655 202.683 146.117 213.83 148.292 216.871 149.38 215.52 157.719 216.195 160.62 220.924 165.333 224.978 167.509 229.369 170.772 231.396 171.497 236.801 172.947 246.26 175.123 256.056 174.76 265.177 172.947 266.866 172.947 273.622 177.661 287.472 183.825 303.687 186 323.617 185.275 342.196 181.286 343.21 179.111 359 146.278 339.156 142.854 324.968 134.877 329.022 134.515 331.387 133.064 333.413 129.076 333.751 124.725 333.751 120.737 336.454 118.561 340.507 113.848 340.507 105.871 339.494 98.6199 337.805 93.5439 336.454 93.5439 338.48 88.4679 340.17 86.2924 338.48 81.579 337.805 79.7661 340.845 75.7778 339.156 71.0644 335.44 65.6257 337.805 57.2866 334.765 50.0351 332.062 47.497 325.982 42.421 320.239 40.6082 318.888 42.421 315.172 38.7953 311.456 36.6199 307.065 36.2573 297.944 33.7193 293.215 33.7193 287.81 33.7193 273.622 30.4561 268.217 31.9064 264.501 33.3568 262.812 37.7076 262.812 40.6082 262.137 43.8713 260.11 44.5965 258.758 47.497 258.758 51.4854 252.34 48.2222 248.287 44.5965 256.732 37.345 258.421 31.5439 258.758 25.0175 256.732 20.3041 252.678 14.8655 245.584 11.2397 235.112 7.97664 226.667 3.62579 217.884 2.17548 200.656 0.725159 190.184 0 181.401 0 169.916 0.725159 154.715 2.53806 139.513 3.98837 129.041 5.43858 117.556 7.25148 102.355 9.78953 87.4914 13.0526 74.6549 16.6784 62.4939 19.9415 52.022 25.0175 47.9682 29.0058 46.6171 33.3568 46.2793 36.6199 45.9415 40.9708 45.9415 47.1346 44.5902 51.1228 38.1719 46.0468 34.4561 41.6959 28.3756 37.345 23.9842 34.4445 17.9037 34.0819 10.8097 34.0819 5.40487 37.7076 5.40487 37.7076 2.36458 43.8713 0 54.0234Z" stroke="#000000" stroke-width="1.33333" stroke-miterlimit="8" fill="#FFF2CC" fill-rule="evenodd" transform="matrix(-1 0 0 1 743.5 261.5)"/><path d="M44 0C38.8928 6.10575 33.7857 12.2116 30.6428 18.635 27.5 25.0584 26.5179 33.0348 25.1429 38.5407 23.7679 44.0465 23.8333 46.3052 22.3929 51.6698 20.9524 57.0345 18.5952 64.5873 16.5 70.7284 14.4047 76.8696 12.244 83.9283 9.82141 88.5164 7.39885 93.1045 3.60117 96.3516 1.96432 98.2574 0.327371 100.163 0.163685 100.057 0 99.9515" stroke="#000000" stroke-width="1.33333" stroke-miterlimit="8" fill="none" fill-rule="evenodd" transform="matrix(-1 0 0 1 539.5 303.5)"/><path d="M541.546 404.79 538.5 402.5" stroke="#000000" stroke-width="1.33333" stroke-miterlimit="8" fill="none" fill-rule="evenodd"/><path d="M0 0C0.382807 6.48297 0.765613 12.9661 2.62499 18.0085 4.48436 23.0509 8.96872 25.9322 11.1562 30.2542 13.3438 34.5762 14.7657 38.2981 15.75 43.9407 16.7344 49.5833 16.2969 58.2274 17.0625 64.1102 17.8281 69.993 19.6875 75.7557 20.3437 79.2373 21 82.7189 21 83.8594 21 85" stroke="#000000" stroke-width="1.33333" stroke-miterlimit="8" fill="none" fill-rule="evenodd" transform="matrix(-1 0 0 1 697.5 306.5)"/><path d="M1.98053 0C0.990263 2.69228 0 5.38467 0 7.89745 0 10.4102 1.21031 12.0854 1.98053 15.0769 2.75074 18.0684 4.62129 22.4958 4.62129 25.8461 4.62129 29.1965 2.20057 31.9487 1.98053 35.1795 1.76048 38.4103 1.76048 43.4359 3.30091 45.2308 4.84134 47.0257 9.79285 43.7949 11.2233 45.9487 12.6538 48.1026 11.4434 54.6838 11.8835 58.1539 12.3235 61.6239 12.2136 64.9743 13.8641 66.7692 15.5146 68.5641 19.4757 69.0428 21.7864 68.9231 24.097 68.8035 26.0776 65.6923 27.7282 66.0513 29.3787 66.4103 30.1489 69.0428 31.6893 71.077 33.2297 73.1112 34.22 76.8205 36.9708 78.2564 39.7217 79.6923 44.8931 80.0513 48.1941 79.6923 51.4952 79.3333 54.356 75.8632 56.7767 76.1025 59.1974 76.3418 60.8479 79.812 62.7185 81.1282 64.589 82.4445 66.2945 83.2222 68 84" stroke="#000000" stroke-width="1.33333" stroke-miterlimit="8" fill="none" fill-rule="evenodd" transform="matrix(-1 0 0 1 486.5 310.5)"/><path d="M883.583 476.389C881.875 470.686 884.777 435.294 887.379 422.215 889.981 409.136 894.612 403.179 899.194 397.917 903.777 392.654 911.908 384.849 914.873 390.64 917.838 396.432 919.86 421.699 916.985 432.665 914.109 443.631 903.56 449.871 897.622 456.434 891.684 462.997 885.29 482.092 883.583 476.389Z" stroke="#000000" stroke-width="1.33333" stroke-miterlimit="8" fill="#767171" fill-rule="evenodd"/><path d="M728.585 392.908C721.658 388.782 716.215 382.297 713.742 371.687 711.268 361.076 710.278 338.087 713.742 329.245 717.205 320.403 726.606 319.224 734.522 318.634 742.439 318.045 754.314 319.224 761.24 325.708 768.167 332.192 773.115 348.697 776.084 357.539 779.053 366.381 782.516 372.276 779.053 378.76 775.589 385.245 764.704 394.087 755.303 396.444 745.902 398.802 735.512 397.034 728.585 392.908Z" stroke="#000000" stroke-width="1.33333" stroke-miterlimit="8" fill-rule="evenodd"/><path d="M535.834 299.813C520.056 308.673 503.874 280.404 492.142 266.902 480.409 253.4 470.7 236.101 465.441 218.801 460.182 201.502 455.732 179.983 460.586 163.106 465.441 146.229 483.646 125.976 494.569 117.538 505.492 109.099 515.201 113.318 526.124 112.474 537.047 111.631 548.779 110.787 560.107 112.474 571.434 114.162 587.617 112.053 594.09 122.601 600.562 133.149 602.359 199.547 601.146 214.736" stroke="#000000" stroke-width="1.33333" stroke-miterlimit="8" fill="#FFFFFF" fill-rule="evenodd"/></g></svg>