<?xml version="1.0" encoding="utf-8"?>
<!-- Generator: Adobe Illustrator 27.0.0, SVG Export Plug-In . SVG Version: 6.00 Build 0)  -->
<svg version="1.1" id="Layer_1" xmlns="http://www.w3.org/2000/svg" xmlns:xlink="http://www.w3.org/1999/xlink" x="0px" y="0px"
	 viewBox="0 0 193.53 150.03" style="enable-background:new 0 0 193.53 150.03;" xml:space="preserve">
<style type="text/css">
	.st0{fill:#C97987;stroke:#000000;stroke-width:0.25;stroke-miterlimit:10;enable-background:new    ;}
	.st1{fill:#E8A6A7;stroke:#000000;stroke-width:0.75;stroke-miterlimit:10;enable-background:new    ;}
	
		.st2{fill:#E8A6A7;stroke:#000000;stroke-width:0.75;stroke-linecap:round;stroke-linejoin:round;stroke-miterlimit:10;enable-background:new    ;}
	.st3{opacity:0.57;stroke:#000000;stroke-width:0.5;stroke-miterlimit:10;enable-background:new    ;}
	.st4{fill:none;stroke:#000000;stroke-width:0.5;stroke-linecap:round;stroke-linejoin:round;stroke-miterlimit:10;}
	.st5{fill:none;stroke:#000000;stroke-width:0.5;stroke-linecap:round;stroke-linejoin:round;stroke-miterlimit:1.551;}
	.st6{fill:#E8A6A7;stroke:#000000;stroke-width:0.5;stroke-linecap:round;stroke-linejoin:round;stroke-miterlimit:10;}
	.st7{fill:#E79CA1;stroke:#000000;stroke-width:0.75;stroke-miterlimit:10;enable-background:new    ;}
	.st8{opacity:0.31;}
	
		.st9{fill:none;stroke:#C5848A;stroke-width:2;stroke-linecap:round;stroke-linejoin:round;stroke-miterlimit:10;enable-background:new    ;}
	.st10{fill:none;stroke:#58595B;stroke-width:0.5;stroke-linecap:round;stroke-linejoin:round;stroke-miterlimit:10;}
	.st11{opacity:0.57;fill:url(#SVGID_1_);enable-background:new    ;}
	
		.st12{fill:none;stroke:#000000;stroke-width:0.75;stroke-linecap:round;stroke-linejoin:round;stroke-miterlimit:10;enable-background:new    ;}
</style>
<g>
	<path class="st0" d="M35.68,79.57c0.47,0.01,0.9-0.26,1.4-1.1c0.43-0.74,0.78-1.5,1.03-2.32c0.32-1.07,0.67-2.12,1.06-3.16
		c0.12-0.33,0.68-1.96,1.31-1.19c0.26,0.32,0.01,1.12-0.07,1.47c-0.39,1.63-1.05,5.06,0.61,6.55c0.35,0.32,0.73,0.53,1.11,0.71
		l0.06-0.01c-1.09-0.03-2.17-0.12-3.24-0.26c-1.12-0.15-2.25-0.35-3.33-0.68"/>
	<path class="st1" d="M91.72,72.98c0,0-4.57,2.78-4.58,2.78c-1.33,0.81-2.58,1.9-3.82,2.84c-1.65,1.25-3.23,2.59-4.57,4.18
		c-1.31,1.55-2.23,2.26-4.28,1.8c-0.14-0.32-0.27-0.64-0.41-0.96c-0.03-0.07-1.78,0.36-2.03,0.38c-0.71,0.06-1.41-0.06-2.03-0.42
		c-0.53-0.3,0.59-1.77,0.78-2.01c0.03-0.04-2.18-0.47-2.29-0.53c-0.88-0.46-0.03-2.7-0.04-3.52c0-0.33-0.02-0.67,0.04-1
		c0.18-0.9,1.58-1.91,2.22-2.56c0.98-0.99,1.95-1.99,2.93-2.98c2.08-2.12,4.16-4.23,6.24-6.35c0.76-0.77,1.52-1.55,2.28-2.32"/>
	<path class="st2" d="M132.97,82.04c4.2,3.8,8.79,7,13.8,9.63c-0.17,0.51-0.35,1.03-0.52,1.54c-0.04,0.13-0.09,0.26-0.17,0.37
		c-0.51,0.73-1.64,1.24-2.35,1.74c-0.99,0.69-1.99,1.39-2.98,2.08c-1.39,0.97-2,2.34-3.14,3.54c-1.11,1.15-2.75,1.69-3.74,2.97
		c-1.42,1.82-2.1,3.74-2.63,5.94c0.55-0.24,1.11-0.49,1.66-0.72c0.02,1.19-0.6,2.67-0.88,3.85c-0.21,0.86,0.23,1.52,0.57,2.29
		c0,0,1.81-1.65,1.81-1.66c-0.33,0.3-0.43,2.11-0.48,2.53c-0.02,0.14-0.03,0.29-0.03,0.43c0.01,0.25,0.13,1.07,0.37,1.21
		c0.42,0.23,1.54-0.77,1.88-0.98c2.02-1.23,2.88-2.65,3.51-4.91c0.28,0.7,0.56,1.39,0.84,2.09c1.25,0.27,1.92-0.33,2.83-1.17
		c1.48-1.37,3.25-2.36,4.91-3.48l4.38-6.75l3.62-8.66l0.11-7.07l-2.52-5.13l-4.5-5.86"/>
	<path class="st2" d="M42.33,80.87c-0.39-0.19-0.78-0.41-1.15-0.75c-1.72-1.56-1.06-5.16-0.67-6.87c0.08-0.36,0.33-1.2,0.06-1.54
		c-0.66-0.82-1.23,0.89-1.35,1.24c-0.4,1.09-0.76,2.2-1.08,3.31c-0.25,0.85-0.61,1.66-1.05,2.43c-1.17,2.03-2.02,0.88-3.76,0.23
		c-2.76-1.03-4.33-4.48-5.17-7.08c-0.88-2.71-0.49-6.04,1.07-8.45c0.71-1.1,1.7-1.8,2.36-2.99c0.64-1.16,1.09-2.41,1.74-3.56
		c0.71-1.25,1.43-2.5,2.15-3.75c0.31-0.53,0.7-1.06,0.9-1.64c0.19-0.54,0.29-1.1,0.41-1.66c0.21-1,0.67-1.92,1.2-2.79
		c0.72-1.16,1.64-2.3,2.91-2.89c0.29-0.13,0.53-0.18,0.74-0.41c0.26-0.27,0.47-0.62,0.71-0.91c0.52-0.65,1.06-1.28,1.61-1.89
		c4.28-4.77,9.77-8.68,16.05-9.94c4.51-0.91,9.17-0.41,13.74,0.09c6,0.66,12.01,1.31,17.93,2.49c1.41,0.28,2.84,0.59,4.28,0.5
		c1.07-0.07,2.11-0.37,3.14-0.64c6.99-1.82,14.27-2.47,21.47-2.02c8.48,0.53,16.86,2.59,24.62,6.06
		c8.36,3.75,16.39,9.19,22.12,16.42c3.57,4.51,6.34,10.04,6.83,15.84c0.17,2,0.24,4.37-0.89,6.13c-1.14,1.77-3.13,2.17-5.07,2.47
		c-2.82,0.43-5.64,0.86-8.47,1.29c-6.84,1.04-13.69,2.06-20.53,3.12c-4.71,0.73-9.47,1.46-14.25,1.2c-4.71-0.26-9.32-1.37-13.95-2.2
		c-5.32-0.95-10.63-1.98-15.91-3.13c-4.35-0.95-9.05-1.61-13.06-3.6c-2.36-1.17-4.4-2.88-6.42-4.55c-2.55-2.1-5.17-3.82-8.1-5.32
		l-4.63,6.89c-1.15,0.75-2.31,1.51-3.46,2.26c-0.8,0.52-1.57,0.84-2.23,1.54c-1.48,1.55-3.23,2.73-5.21,3.54
		c-3.05,1.25-6.41,1.67-9.72,1.54"/>
	<path class="st2" d="M163.78,73.87c0.61,1.99,1.35,3.94,1.86,5.97c0.49,1.96,0.37,3.82,0.61,5.77c0.5,4.17,0.33,8.42-0.5,12.53
		c-2.31,11.46-9.67,21.43-18.71,28.83c-3.76,3.07-7.96,5.93-10.18,10.24c-0.42,0.82-0.59,2.11,0.29,2.39
		c0.3,0.1,0.62,0.02,0.92-0.06c2.07-0.58,3.96-1.65,5.79-2.78c8.24-5.07,15.59-11.57,21.67-19.09c3-3.71,5.41-7.47,7.09-11.96
		c1.56-4.18,2.52-8.59,2.81-13.05c0.18-2.78,0.03-5.55-0.15-8.33c-0.33-5.15-0.5-10.25-1.19-15.36"/>
	<path class="st2" d="M70.71,61.42c-2.45,2.69-4.91,5.19-6.8,8.33c-1.87,3.12-3.65,6.28-5.83,9.18c-1.42,1.9-2.95,3.68-4.05,5.8
		c-0.99,1.91-1.61,3.99-2.15,6.06c-0.37,1.43-0.91,2.81-1.11,4.28c-0.1,0.72-0.15,1.52,0.1,2.22c0.13,0.37,0.83,1.61,1.34,1.34
		c1.79-0.95,2.88-2.72,4.69-3.57c0.11-0.05,0.22-0.1,0.31-0.18c0.12-0.09,0.2-0.21,0.29-0.33c0.67-0.97,1.02-2.05,1.43-3.14
		c0.7-0.39,1.64-0.69,2.05-1.41c0.9-1.57,1.95-3.03,2.96-4.53c0.24-0.36,0.95-0.66,1.29-0.92c0.63-0.48,1.24-0.99,1.82-1.52
		c2.01-1.83,3.43-4.22,5.7-5.71c2.6-1.7,5.27-3.28,8-4.73"/>
	<path class="st3" d="M99.11,33.39c-1.04,0.27-2.08,0.57-3.14,0.64c-1.44,0.1-2.86-0.22-4.28-0.5c-5.92-1.18-11.93-1.83-17.93-2.49
		c-4.57-0.5-9.23-1-13.74-0.09c-6.28,1.26-11.77,5.18-16.05,9.94c-0.64,0.72-1.26,1.45-1.86,2.21c-0.24,0.3-0.46,0.72-0.73,0.98
		c-0.31,0.3-0.8,0.46-1.14,0.74c-0.68,0.54-1.16,1.28-1.64,2.01c-0.28,0.43-0.56,0.86-0.84,1.29c-0.19,0.3-0.39,0.59-0.51,0.92
		c-0.13,0.35-0.18,0.73-0.27,1.1c-0.29,1.18-1.07,2.21-1.67,3.25c-0.67,1.14-1.32,2.29-1.98,3.44c-0.46,0.81-0.96,1.47-1.15,2.39
		c-0.03,0.16-0.06,0.33-0.13,0.48c-0.09,0.2-0.23,0.36-0.35,0.54c-0.23,0.33-0.39,0.71-0.59,1.06c-0.23,0.41-0.55,0.59-0.85,0.91
		c-0.26,0.27-0.47,0.64-0.72,0.92c-0.47,0.55-0.81,1.2-1.05,1.88c-0.32,0.91-0.48,1.86-0.63,2.81c-0.15,0.95-0.02,1.67,0.16,2.59
		c0.55,2.84,1.89,5.97,4.23,7.79c1.37,1.07,3.77,2.58,4.93,0.45c0.35-0.65,0.46-1.39,0.65-2.11c0.2-0.77,0.5-1.52,0.79-2.26
		c0.31-0.78,0.62-1.55,0.93-2.33c0.05-0.14,0.11-0.28,0.23-0.37c0.27-0.21,0.69,0,0.82,0.31c0.18,0.42,0.17,1.3,0.13,1.76
		c-0.12,1.19-0.23,2.38-0.35,3.58c-0.08,0.82-0.15,1.68,0.17,2.43c0.76,1.78,3.56,1.26,5.09,1.13c2.16-0.18,4.31-0.64,6.33-1.47
		c1.98-0.81,3.73-1.99,5.21-3.54c0.67-0.7,1.43-1.02,2.23-1.54c0.89-0.58,2.31-1.18,2.93-2.04c0.63-0.87,1.03-2.02,1.62-2.94
		c1.34-2.09,2.93-4.01,4.72-5.73c-0.26-0.56-0.52-1.12-0.78-1.68c-0.08-0.17-0.16-0.36-0.13-0.55c0.04-0.25,0.26-0.42,0.45-0.58
		c2.07-1.73,2.26-5.1,2.49-7.63c0.21-2.31-0.87-4.94,0.53-6.8c0.44-0.59,1.09-1,1.75-1.33c4-1.95,8.65-1.21,12.87-2.25
		c4.45-1.1,8.57-2.66,13.2-3.3c8.24-1.15,16.84-1.64,24.21-5.5c0.06-1.58-1.75-2.56-3.33-2.7C113.09,30.63,105.73,31.66,99.11,33.39
		z"/>
	<path class="st4" d="M63.3,48.69c1.03,3.45,2.01,6.92,3.39,10.25c0.64,1.54,1.32,3.07,1.99,4.59"/>
	<path class="st5" d="M81.65,49.8c2.35,4.25,4.76,8.03,6.05,12.78"/>
	<path class="st5" d="M137.56,75.78c-1.41-0.88-3.03-1.8-3.71-3.4c-0.77-1.79-0.71-3.91-0.87-5.82"/>
	<path class="st5" d="M168.62,68.37c-1.67,1.67-3.24,3.25-5.28,4.5"/>
	<path class="st5" d="M165.86,64.49c-2.19,1.16-3.88,3.16-6.16,4.15"/>
	<path class="st5" d="M88.98,59.34c0.1-1.81,0.21-3.63,0.01-5.44c-0.1-0.9-0.25-1.88-0.6-2.73c-0.34-0.82-0.97-1.44-1.5-2.14"/>
	<path class="st5" d="M56.59,62.2c-0.5-1.5-0.79-3.04-1.41-4.51c-0.65-1.55-1.48-3.04-2.46-4.41"/>
	<path class="st5" d="M52.89,64.59c-0.48-2.86-1.39-5.64-2.68-8.23"/>
	<line class="st6" x1="134.39" y1="113.61" x2="135.52" y2="110.88"/>
	<line class="st6" x1="132.89" y1="109.12" x2="133.77" y2="106.86"/>
	<path class="st2" d="M158.26,69.32c0.11,2.75-0.11,5.87,1.22,8.37c0.33,0.61,0.74,1.16,1.18,1.7c0.9,1.1,1.78,1.73,3.02,2.35
		c1.16,0.58,2.09,1.59,2.5,2.82c0.25,0.76,0.32,1.58,0.3,2.38c-0.07,3.14-1.59,5.73-2.88,8.49c-1.18,2.52-2.67,4.87-3.85,7.39
		c-0.94,2.01-1.77,4.07-2.47,6.17c-0.35,1.05-0.63,2.12-0.97,3.17c-0.28,0.86-0.7,1.17-1.43,1.67c0.07-0.03,0,1.57-0.04,1.75
		l-0.49,0.21c0,0-1.59-3.65-1.59-3.65c-0.3,1.88-0.3,4.18-0.99,5.95c-0.37,0.94-1.1,1.01-1.98,1.2l-0.5-0.15l-0.08,1.48l-0.47,1.07
		l-1.41-2.57l-0.77,2.72l-1.4-3.22c0,0-0.59,1.25-0.6,1.27c0.08-0.18-0.56-1.25-0.63-1.44c-0.47-1.35-0.56-3.17-0.07-4.53
		c0.78-2.21,1.57-4.43,2.35-6.64c0.7-1.99,1.18-4.18,2.34-5.95c0.67-1.02,1.47-1.94,2.18-2.94c0.75-1.06,1.18-2.22,1.78-3.36
		c0.64-1.22,1.24-2.49,1.39-3.88c0.33-3.03-1.83-5.27-3.37-7.62c-0.26-0.4-0.83-0.75-1.17-1.1c-0.64-0.65-1.3-1.29-2.06-1.81
		c-1.58-1.07-3.48-1.74-5.21-2.54"/>
	<path class="st6" d="M152.77,112.14c0.12-0.99,0.18-1.92,0.57-2.85"/>
	<polyline class="st6" points="147.34,119.12 147.41,117.28 147.85,115.14 	"/>
	<path class="st6" d="M145.17,118.62c-0.11-1.39-0.52-2.97,0.45-4.14"/>
	<path class="st7" d="M63.16,31.82c0.04,2.92-5.1,6.85-6.73,7.97c-1.61,1.11-3.93,2.53-5.15,0.1c-0.99-1.98-0.28-5.7,1.34-7.19
		c0.36-0.33,0.8-0.57,1.23-0.8c2.1-1.12,5.45-3.63,7.94-2.16C62.75,30.3,63.15,31.02,63.16,31.82z"/>
	<path class="st4" d="M55.79,95.75c0.23-2,0.35-3.83,0.93-5.76"/>
	<path class="st4" d="M53.35,97.9c-0.22-1.54-0.29-3.43,0.27-4.9"/>
	<path class="st6" d="M74.11,83.64c0.55-1.14,1.58-2.03,2.78-2.42"/>
	<path class="st6" d="M70.78,81.56c1.2-0.97,2.35-1.84,3.84-2.3"/>
	<path class="st8" d="M42.29,46.03c-0.01,0.23-0.05,0.44-0.1,0.62c-0.36,1.14-0.99,2.19-1.81,3.06c-0.4,0.43-0.88,0.91-1.4,1.19
		c-0.6,0.32-1.45,0.39-2.12,0.4c-0.29-0.24,0.05-1.23,0.13-1.54c0.13-0.55,0.31-1.1,0.54-1.62c0.44-1.02,1.06-1.97,1.82-2.79
		c0.49-0.53,1.26-1.2,2.04-1.03C42.09,44.47,42.33,45.31,42.29,46.03z"/>
	<path class="st9" d="M57.91,35.22c0.32-0.26,0.64-0.53,0.83-0.89c0.19-0.36,0.23-0.84-0.02-1.16c-0.41-0.52-1.22-0.35-1.84-0.13"/>
	<path class="st6" d="M139.65,111.9c0.3-1.21,0.5-2.33,1.12-3.43"/>
	<path class="st10" d="M34.05,61.41c1.1,0.11,2.13-0.16,3.19,0.27c0.58,0.23,1.11,0.57,1.64,0.9"/>
	
		<radialGradient id="SVGID_1_" cx="78.1613" cy="62.0666" r="2.4787" gradientTransform="matrix(0.9976 -0.0697 0.0697 0.9976 -51.4481 18.1761)" gradientUnits="userSpaceOnUse">
		<stop  offset="0" style="stop-color:#E8A6A7"/>
		<stop  offset="0.6559" style="stop-color:#E8A6A7;stop-opacity:0.5"/>
		<stop  offset="1" style="stop-color:#E8A6A7;stop-opacity:0"/>
	</radialGradient>
	<path class="st11" d="M31.7,76.93c0.29-0.17,0.58-0.41,0.78-0.57c0.66-0.55,0.89-1.22,0.78-2.07c-0.19-1.51-2.12-1.95-3.36-2.04
		c-0.35-0.03-0.72-0.03-1.07,0c-0.52,0.05-0.61-0.01-0.54,0.48c0.13,0.91,0.71,1.73,1.18,2.49c0.34,0.55,0.82,1.7,1.49,1.91
		C31.15,77.2,31.42,77.1,31.7,76.93z"/>
	<path class="st4" d="M30.58,74.62c0-0.24-0.12-0.66,0.16-0.79c0.15-0.07,0.33-0.03,0.48,0.02s0.31,0.13,0.47,0.14
		c0.7,0.05,0.18,1.06-0.01,1.35c-0.69,1.06-1.78,0.4-2.2-0.51c-0.2-0.43-0.36-0.94-0.65-1.32"/>
	<path class="st12" d="M34.27,79.26c-0.26-0.13-0.54-0.26-0.85-0.37c-2.76-1.03-4.33-4.48-5.17-7.08c-0.88-2.71-0.49-6.04,1.07-8.45
		"/>
</g>
</svg>
